<mxfile host="app.diagrams.net" modified="2022-05-23T15:49:13.107Z" agent="5.0 (Windows NT 10.0; Win64; x64) AppleWebKit/537.36 (KHTML, like Gecko) Chrome/101.0.4951.64 Safari/537.36 Edg/101.0.1210.47" etag="C2zE-sAz4Ue9_lToPrBe" version="17.5.0" type="github">
  <diagram id="A5NiPpgJj7nc6MVz3xeY" name="Page-1">
    <mxGraphModel dx="1422" dy="800" grid="1" gridSize="10" guides="1" tooltips="1" connect="1" arrows="1" fold="1" page="1" pageScale="1" pageWidth="827" pageHeight="1169" math="0" shadow="0">
      <root>
        <mxCell id="0" />
        <mxCell id="1" parent="0" />
        <mxCell id="RjcR3AsE55ujhxijjUr5-1" value="初始化服务器" style="rounded=1;whiteSpace=wrap;html=1;" vertex="1" parent="1">
          <mxGeometry x="354" y="90" width="120" height="60" as="geometry" />
        </mxCell>
        <mxCell id="RjcR3AsE55ujhxijjUr5-3" value="epoll_wait循环监听事件" style="rounded=0;whiteSpace=wrap;html=1;" vertex="1" parent="1">
          <mxGeometry x="354" y="190" width="120" height="60" as="geometry" />
        </mxCell>
        <mxCell id="RjcR3AsE55ujhxijjUr5-4" value="新用户链接&lt;br&gt;dealclientdata" style="rounded=0;whiteSpace=wrap;html=1;" vertex="1" parent="1">
          <mxGeometry x="69" y="300" width="120" height="60" as="geometry" />
        </mxCell>
        <mxCell id="RjcR3AsE55ujhxijjUr5-5" value="用户数据到达&lt;br&gt;dealwithread" style="rounded=0;whiteSpace=wrap;html=1;" vertex="1" parent="1">
          <mxGeometry x="259" y="300" width="120" height="60" as="geometry" />
        </mxCell>
        <mxCell id="RjcR3AsE55ujhxijjUr5-6" value="需要发送数据&lt;br&gt;dealwithwrite" style="rounded=0;whiteSpace=wrap;html=1;" vertex="1" parent="1">
          <mxGeometry x="439" y="300" width="120" height="60" as="geometry" />
        </mxCell>
        <mxCell id="RjcR3AsE55ujhxijjUr5-7" value="定时器事件&lt;br&gt;dealwithsignal" style="rounded=0;whiteSpace=wrap;html=1;" vertex="1" parent="1">
          <mxGeometry x="639" y="300" width="120" height="60" as="geometry" />
        </mxCell>
        <mxCell id="RjcR3AsE55ujhxijjUr5-9" value="" style="endArrow=classic;html=1;rounded=0;entryX=0.5;entryY=0;entryDx=0;entryDy=0;exitX=0.5;exitY=1;exitDx=0;exitDy=0;" edge="1" parent="1" source="RjcR3AsE55ujhxijjUr5-3" target="RjcR3AsE55ujhxijjUr5-4">
          <mxGeometry width="50" height="50" relative="1" as="geometry">
            <mxPoint x="190" y="270" as="sourcePoint" />
            <mxPoint x="240" y="220" as="targetPoint" />
          </mxGeometry>
        </mxCell>
        <mxCell id="RjcR3AsE55ujhxijjUr5-10" value="" style="endArrow=classic;html=1;rounded=0;entryX=0.5;entryY=0;entryDx=0;entryDy=0;exitX=0.5;exitY=1;exitDx=0;exitDy=0;" edge="1" parent="1" source="RjcR3AsE55ujhxijjUr5-3" target="RjcR3AsE55ujhxijjUr5-5">
          <mxGeometry width="50" height="50" relative="1" as="geometry">
            <mxPoint x="424" y="259.9999999999999" as="sourcePoint" />
            <mxPoint x="139" y="309.9999999999999" as="targetPoint" />
          </mxGeometry>
        </mxCell>
        <mxCell id="RjcR3AsE55ujhxijjUr5-11" value="" style="endArrow=classic;html=1;rounded=0;entryX=0.5;entryY=0;entryDx=0;entryDy=0;exitX=0.5;exitY=1;exitDx=0;exitDy=0;" edge="1" parent="1" source="RjcR3AsE55ujhxijjUr5-3" target="RjcR3AsE55ujhxijjUr5-6">
          <mxGeometry width="50" height="50" relative="1" as="geometry">
            <mxPoint x="434" y="269.9999999999999" as="sourcePoint" />
            <mxPoint x="149" y="319.9999999999999" as="targetPoint" />
          </mxGeometry>
        </mxCell>
        <mxCell id="RjcR3AsE55ujhxijjUr5-12" value="" style="endArrow=classic;html=1;rounded=0;entryX=0.5;entryY=0;entryDx=0;entryDy=0;" edge="1" parent="1" target="RjcR3AsE55ujhxijjUr5-7">
          <mxGeometry width="50" height="50" relative="1" as="geometry">
            <mxPoint x="410" y="250" as="sourcePoint" />
            <mxPoint x="159" y="329.9999999999999" as="targetPoint" />
          </mxGeometry>
        </mxCell>
        <mxCell id="RjcR3AsE55ujhxijjUr5-13" value="" style="endArrow=classic;html=1;rounded=0;entryX=0.5;entryY=0;entryDx=0;entryDy=0;exitX=0.5;exitY=1;exitDx=0;exitDy=0;" edge="1" parent="1" source="RjcR3AsE55ujhxijjUr5-1" target="RjcR3AsE55ujhxijjUr5-3">
          <mxGeometry width="50" height="50" relative="1" as="geometry">
            <mxPoint x="454" y="289.9999999999999" as="sourcePoint" />
            <mxPoint x="169" y="339.9999999999999" as="targetPoint" />
          </mxGeometry>
        </mxCell>
        <mxCell id="RjcR3AsE55ujhxijjUr5-14" value="1、是否超过最大连接数&lt;br&gt;2、http连接池中初始化一个链接&lt;br&gt;3、设置定时器用户数据结构&lt;br&gt;4、设置定时器并绑定用户数据" style="whiteSpace=wrap;html=1;aspect=fixed;" vertex="1" parent="1">
          <mxGeometry x="69" y="390" width="120" height="120" as="geometry" />
        </mxCell>
        <mxCell id="RjcR3AsE55ujhxijjUr5-17" value="" style="endArrow=none;dashed=1;html=1;dashPattern=1 3;strokeWidth=2;rounded=0;entryX=0.5;entryY=1;entryDx=0;entryDy=0;exitX=0.5;exitY=0;exitDx=0;exitDy=0;" edge="1" parent="1" source="RjcR3AsE55ujhxijjUr5-14" target="RjcR3AsE55ujhxijjUr5-4">
          <mxGeometry width="50" height="50" relative="1" as="geometry">
            <mxPoint x="120" y="410" as="sourcePoint" />
            <mxPoint x="170" y="360" as="targetPoint" />
          </mxGeometry>
        </mxCell>
        <mxCell id="RjcR3AsE55ujhxijjUr5-18" value="1、根据fd号，调整对应定时器时间&lt;br&gt;2、取得对应的http链接事件，并入队到线程池工作队列中" style="whiteSpace=wrap;html=1;aspect=fixed;" vertex="1" parent="1">
          <mxGeometry x="350" y="390" width="120" height="120" as="geometry" />
        </mxCell>
        <mxCell id="RjcR3AsE55ujhxijjUr5-19" value="" style="endArrow=none;dashed=1;html=1;dashPattern=1 3;strokeWidth=2;rounded=0;exitX=0.5;exitY=0;exitDx=0;exitDy=0;entryX=0.5;entryY=1;entryDx=0;entryDy=0;" edge="1" parent="1" source="RjcR3AsE55ujhxijjUr5-18" target="RjcR3AsE55ujhxijjUr5-5">
          <mxGeometry width="50" height="50" relative="1" as="geometry">
            <mxPoint x="300" y="410" as="sourcePoint" />
            <mxPoint x="350" y="360" as="targetPoint" />
          </mxGeometry>
        </mxCell>
        <mxCell id="RjcR3AsE55ujhxijjUr5-20" value="" style="endArrow=none;dashed=1;html=1;dashPattern=1 3;strokeWidth=2;rounded=0;entryX=0.5;entryY=1;entryDx=0;entryDy=0;" edge="1" parent="1" target="RjcR3AsE55ujhxijjUr5-6">
          <mxGeometry width="50" height="50" relative="1" as="geometry">
            <mxPoint x="410" y="390" as="sourcePoint" />
            <mxPoint x="540" y="370" as="targetPoint" />
          </mxGeometry>
        </mxCell>
        <mxCell id="RjcR3AsE55ujhxijjUr5-21" value="当判断是管道发送过来的数据时，进一步判断定时器信号类型：&lt;br&gt;1、时间信号&lt;br&gt;2、退出信号" style="whiteSpace=wrap;html=1;aspect=fixed;" vertex="1" parent="1">
          <mxGeometry x="639" y="390" width="120" height="120" as="geometry" />
        </mxCell>
        <mxCell id="RjcR3AsE55ujhxijjUr5-22" value="" style="endArrow=none;dashed=1;html=1;dashPattern=1 3;strokeWidth=2;rounded=0;entryX=0.5;entryY=1;entryDx=0;entryDy=0;exitX=0.5;exitY=0;exitDx=0;exitDy=0;" edge="1" parent="1" source="RjcR3AsE55ujhxijjUr5-21" target="RjcR3AsE55ujhxijjUr5-7">
          <mxGeometry width="50" height="50" relative="1" as="geometry">
            <mxPoint x="580" y="430" as="sourcePoint" />
            <mxPoint x="630" y="380" as="targetPoint" />
          </mxGeometry>
        </mxCell>
        <mxCell id="RjcR3AsE55ujhxijjUr5-23" value="&lt;b&gt;&lt;font color=&quot;#ff0000&quot;&gt;http链接类&lt;/font&gt;&lt;/b&gt;" style="whiteSpace=wrap;html=1;aspect=fixed;" vertex="1" parent="1">
          <mxGeometry x="827" width="40" height="40" as="geometry" />
        </mxCell>
        <mxCell id="RjcR3AsE55ujhxijjUr5-27" value="" style="ellipse;whiteSpace=wrap;html=1;aspect=fixed;dashed=1;fillColor=none;strokeColor=#FF0000;" vertex="1" parent="1">
          <mxGeometry x="244" y="210" width="340" height="340" as="geometry" />
        </mxCell>
        <mxCell id="RjcR3AsE55ujhxijjUr5-28" value="" style="endArrow=classic;html=1;rounded=1;exitX=0.841;exitY=0.118;exitDx=0;exitDy=0;exitPerimeter=0;strokeColor=#FF0000;" edge="1" parent="1" source="RjcR3AsE55ujhxijjUr5-27">
          <mxGeometry width="50" height="50" relative="1" as="geometry">
            <mxPoint x="540" y="250" as="sourcePoint" />
            <mxPoint x="820" y="40" as="targetPoint" />
          </mxGeometry>
        </mxCell>
        <mxCell id="RjcR3AsE55ujhxijjUr5-29" value="&lt;font style=&quot;font-size: 24px&quot;&gt;主从状态转换图&lt;/font&gt;" style="text;html=1;align=center;verticalAlign=middle;resizable=0;points=[];autosize=1;strokeColor=none;fillColor=none;fontColor=#1A1A1A;" vertex="1" parent="1">
          <mxGeometry x="990" y="10" width="180" height="20" as="geometry" />
        </mxCell>
        <mxCell id="RjcR3AsE55ujhxijjUr5-30" value="" style="whiteSpace=wrap;html=1;aspect=fixed;fontSize=24;fontColor=#FF0000;strokeColor=#1A1A1A;fillColor=none;" vertex="1" parent="1">
          <mxGeometry x="855" y="165" width="150" height="150" as="geometry" />
        </mxCell>
        <mxCell id="RjcR3AsE55ujhxijjUr5-33" value="&lt;font style=&quot;font-size: 15px&quot;&gt;L_OPEN&lt;/font&gt;" style="text;html=1;align=center;verticalAlign=middle;resizable=0;points=[];autosize=1;strokeColor=none;fillColor=none;fontSize=24;fontColor=#FF0000;" vertex="1" parent="1">
          <mxGeometry x="862" y="175" width="70" height="40" as="geometry" />
        </mxCell>
        <mxCell id="RjcR3AsE55ujhxijjUr5-34" value="&lt;font style=&quot;font-size: 15px&quot;&gt;L_OK&lt;/font&gt;" style="text;html=1;align=center;verticalAlign=middle;resizable=0;points=[];autosize=1;strokeColor=none;fillColor=none;fontSize=24;fontColor=#FF0000;" vertex="1" parent="1">
          <mxGeometry x="872" y="255" width="50" height="40" as="geometry" />
        </mxCell>
        <mxCell id="RjcR3AsE55ujhxijjUr5-35" value="&lt;font style=&quot;font-size: 15px&quot;&gt;L_BAD&lt;/font&gt;" style="text;html=1;align=center;verticalAlign=middle;resizable=0;points=[];autosize=1;strokeColor=none;fillColor=none;fontSize=24;fontColor=#FF0000;" vertex="1" parent="1">
          <mxGeometry x="940" y="215" width="60" height="40" as="geometry" />
        </mxCell>
        <mxCell id="RjcR3AsE55ujhxijjUr5-44" value="" style="endArrow=classic;html=1;rounded=1;fontSize=15;fontColor=#FF0000;strokeColor=#1A1A1A;entryX=0.329;entryY=1.013;entryDx=0;entryDy=0;entryPerimeter=0;" edge="1" parent="1" target="RjcR3AsE55ujhxijjUr5-33">
          <mxGeometry width="50" height="50" relative="1" as="geometry">
            <mxPoint x="885" y="255" as="sourcePoint" />
            <mxPoint x="925" y="365" as="targetPoint" />
          </mxGeometry>
        </mxCell>
        <mxCell id="RjcR3AsE55ujhxijjUr5-45" value="" style="endArrow=classic;html=1;rounded=1;fontSize=15;fontColor=#FF0000;strokeColor=#1A1A1A;" edge="1" parent="1">
          <mxGeometry width="50" height="50" relative="1" as="geometry">
            <mxPoint x="905" y="215" as="sourcePoint" />
            <mxPoint x="905" y="255" as="targetPoint" />
          </mxGeometry>
        </mxCell>
        <mxCell id="RjcR3AsE55ujhxijjUr5-46" value="" style="endArrow=classic;html=1;rounded=1;fontSize=15;fontColor=#FF0000;strokeColor=#1A1A1A;entryX=0.514;entryY=-0.071;entryDx=0;entryDy=0;entryPerimeter=0;exitX=1.067;exitY=0.575;exitDx=0;exitDy=0;exitPerimeter=0;" edge="1" parent="1" source="RjcR3AsE55ujhxijjUr5-33" target="RjcR3AsE55ujhxijjUr5-35">
          <mxGeometry width="50" height="50" relative="1" as="geometry">
            <mxPoint x="975" y="405" as="sourcePoint" />
            <mxPoint x="905.0300000000002" y="235.51999999999998" as="targetPoint" />
          </mxGeometry>
        </mxCell>
        <mxCell id="RjcR3AsE55ujhxijjUr5-47" value="" style="whiteSpace=wrap;html=1;aspect=fixed;fontSize=24;fontColor=#FF0000;strokeColor=#1A1A1A;fillColor=none;" vertex="1" parent="1">
          <mxGeometry x="1145" y="160" width="150" height="150" as="geometry" />
        </mxCell>
        <mxCell id="RjcR3AsE55ujhxijjUr5-48" value="&lt;font style=&quot;font-size: 15px&quot;&gt;L_OPEN&lt;/font&gt;" style="text;html=1;align=center;verticalAlign=middle;resizable=0;points=[];autosize=1;strokeColor=none;fillColor=none;fontSize=24;fontColor=#FF0000;" vertex="1" parent="1">
          <mxGeometry x="1152" y="170" width="70" height="40" as="geometry" />
        </mxCell>
        <mxCell id="RjcR3AsE55ujhxijjUr5-49" value="&lt;font style=&quot;font-size: 15px&quot;&gt;L_OK&lt;/font&gt;" style="text;html=1;align=center;verticalAlign=middle;resizable=0;points=[];autosize=1;strokeColor=none;fillColor=none;fontSize=24;fontColor=#FF0000;" vertex="1" parent="1">
          <mxGeometry x="1162" y="250" width="50" height="40" as="geometry" />
        </mxCell>
        <mxCell id="RjcR3AsE55ujhxijjUr5-50" value="&lt;font style=&quot;font-size: 15px&quot;&gt;L_BAD&lt;/font&gt;" style="text;html=1;align=center;verticalAlign=middle;resizable=0;points=[];autosize=1;strokeColor=none;fillColor=none;fontSize=24;fontColor=#FF0000;" vertex="1" parent="1">
          <mxGeometry x="1230" y="210" width="60" height="40" as="geometry" />
        </mxCell>
        <mxCell id="RjcR3AsE55ujhxijjUr5-51" value="" style="endArrow=classic;html=1;rounded=1;fontSize=15;fontColor=#FF0000;strokeColor=#1A1A1A;entryX=0.329;entryY=1.013;entryDx=0;entryDy=0;entryPerimeter=0;" edge="1" parent="1" target="RjcR3AsE55ujhxijjUr5-48">
          <mxGeometry width="50" height="50" relative="1" as="geometry">
            <mxPoint x="1175" y="250" as="sourcePoint" />
            <mxPoint x="1215" y="360" as="targetPoint" />
          </mxGeometry>
        </mxCell>
        <mxCell id="RjcR3AsE55ujhxijjUr5-52" value="" style="endArrow=classic;html=1;rounded=1;fontSize=15;fontColor=#FF0000;strokeColor=#1A1A1A;" edge="1" parent="1">
          <mxGeometry width="50" height="50" relative="1" as="geometry">
            <mxPoint x="1195" y="210" as="sourcePoint" />
            <mxPoint x="1195" y="250" as="targetPoint" />
          </mxGeometry>
        </mxCell>
        <mxCell id="RjcR3AsE55ujhxijjUr5-53" value="" style="endArrow=classic;html=1;rounded=1;fontSize=15;fontColor=#FF0000;strokeColor=#1A1A1A;entryX=0.514;entryY=-0.071;entryDx=0;entryDy=0;entryPerimeter=0;exitX=1.067;exitY=0.575;exitDx=0;exitDy=0;exitPerimeter=0;" edge="1" parent="1" source="RjcR3AsE55ujhxijjUr5-48" target="RjcR3AsE55ujhxijjUr5-50">
          <mxGeometry width="50" height="50" relative="1" as="geometry">
            <mxPoint x="1265" y="400" as="sourcePoint" />
            <mxPoint x="1195.0300000000002" y="230.51999999999998" as="targetPoint" />
          </mxGeometry>
        </mxCell>
        <mxCell id="RjcR3AsE55ujhxijjUr5-54" value="" style="whiteSpace=wrap;html=1;aspect=fixed;fontSize=24;fontColor=#FF0000;strokeColor=#1A1A1A;fillColor=none;" vertex="1" parent="1">
          <mxGeometry x="1145" y="370" width="150" height="150" as="geometry" />
        </mxCell>
        <mxCell id="RjcR3AsE55ujhxijjUr5-55" value="&lt;font style=&quot;font-size: 15px&quot;&gt;L_OPEN&lt;/font&gt;" style="text;html=1;align=center;verticalAlign=middle;resizable=0;points=[];autosize=1;strokeColor=none;fillColor=none;fontSize=24;fontColor=#FF0000;" vertex="1" parent="1">
          <mxGeometry x="1152" y="380" width="70" height="40" as="geometry" />
        </mxCell>
        <mxCell id="RjcR3AsE55ujhxijjUr5-56" value="&lt;font style=&quot;font-size: 15px&quot;&gt;L_OK&lt;/font&gt;" style="text;html=1;align=center;verticalAlign=middle;resizable=0;points=[];autosize=1;strokeColor=none;fillColor=none;fontSize=24;fontColor=#FF0000;" vertex="1" parent="1">
          <mxGeometry x="1162" y="460" width="50" height="40" as="geometry" />
        </mxCell>
        <mxCell id="RjcR3AsE55ujhxijjUr5-57" value="&lt;font style=&quot;font-size: 15px&quot;&gt;L_BAD&lt;/font&gt;" style="text;html=1;align=center;verticalAlign=middle;resizable=0;points=[];autosize=1;strokeColor=none;fillColor=none;fontSize=24;fontColor=#FF0000;" vertex="1" parent="1">
          <mxGeometry x="1230" y="420" width="60" height="40" as="geometry" />
        </mxCell>
        <mxCell id="RjcR3AsE55ujhxijjUr5-58" value="" style="endArrow=classic;html=1;rounded=1;fontSize=15;fontColor=#FF0000;strokeColor=#1A1A1A;entryX=0.329;entryY=1.013;entryDx=0;entryDy=0;entryPerimeter=0;" edge="1" parent="1" target="RjcR3AsE55ujhxijjUr5-55">
          <mxGeometry width="50" height="50" relative="1" as="geometry">
            <mxPoint x="1175" y="460" as="sourcePoint" />
            <mxPoint x="1215" y="570" as="targetPoint" />
          </mxGeometry>
        </mxCell>
        <mxCell id="RjcR3AsE55ujhxijjUr5-59" value="" style="endArrow=classic;html=1;rounded=1;fontSize=15;fontColor=#FF0000;strokeColor=#1A1A1A;" edge="1" parent="1">
          <mxGeometry width="50" height="50" relative="1" as="geometry">
            <mxPoint x="1195" y="420" as="sourcePoint" />
            <mxPoint x="1195" y="460" as="targetPoint" />
          </mxGeometry>
        </mxCell>
        <mxCell id="RjcR3AsE55ujhxijjUr5-60" value="" style="endArrow=classic;html=1;rounded=1;fontSize=15;fontColor=#FF0000;strokeColor=#1A1A1A;entryX=0.514;entryY=-0.071;entryDx=0;entryDy=0;entryPerimeter=0;exitX=1.067;exitY=0.575;exitDx=0;exitDy=0;exitPerimeter=0;" edge="1" parent="1" source="RjcR3AsE55ujhxijjUr5-55" target="RjcR3AsE55ujhxijjUr5-57">
          <mxGeometry width="50" height="50" relative="1" as="geometry">
            <mxPoint x="1265" y="610" as="sourcePoint" />
            <mxPoint x="1195.0300000000002" y="440.52" as="targetPoint" />
          </mxGeometry>
        </mxCell>
        <mxCell id="RjcR3AsE55ujhxijjUr5-66" value="&lt;font color=&quot;#1a1a1a&quot;&gt;STATE_REQUEST&lt;/font&gt;" style="rounded=1;whiteSpace=wrap;html=1;fontSize=15;fontColor=#FF0000;strokeColor=#1A1A1A;fillColor=none;" vertex="1" parent="1">
          <mxGeometry x="867" y="60" width="135" height="60" as="geometry" />
        </mxCell>
        <mxCell id="RjcR3AsE55ujhxijjUr5-67" value="&lt;font color=&quot;#1a1a1a&quot;&gt;STATE_HEADER&lt;/font&gt;" style="rounded=1;whiteSpace=wrap;html=1;fontSize=15;fontColor=#FF0000;strokeColor=#1A1A1A;fillColor=none;" vertex="1" parent="1">
          <mxGeometry x="1150" y="60" width="135" height="60" as="geometry" />
        </mxCell>
        <mxCell id="RjcR3AsE55ujhxijjUr5-68" value="&lt;font color=&quot;#1a1a1a&quot;&gt;STATE_CONTENT&lt;/font&gt;" style="rounded=1;whiteSpace=wrap;html=1;fontSize=15;fontColor=#FF0000;strokeColor=#1A1A1A;fillColor=none;arcSize=0;" vertex="1" parent="1">
          <mxGeometry x="1328" y="410" width="135" height="60" as="geometry" />
        </mxCell>
        <mxCell id="RjcR3AsE55ujhxijjUr5-69" value="" style="endArrow=classic;html=1;rounded=1;fontSize=15;fontColor=#FF0000;strokeColor=#1A1A1A;entryX=0;entryY=0.5;entryDx=0;entryDy=0;exitX=1;exitY=0.5;exitDx=0;exitDy=0;" edge="1" parent="1" source="RjcR3AsE55ujhxijjUr5-66" target="RjcR3AsE55ujhxijjUr5-67">
          <mxGeometry width="50" height="50" relative="1" as="geometry">
            <mxPoint x="1020" y="120" as="sourcePoint" />
            <mxPoint x="1070" y="70" as="targetPoint" />
          </mxGeometry>
        </mxCell>
        <mxCell id="RjcR3AsE55ujhxijjUr5-70" value="" style="curved=1;endArrow=classic;html=1;rounded=1;fontSize=15;fontColor=#FF0000;strokeColor=#1A1A1A;exitX=1;exitY=0.5;exitDx=0;exitDy=0;entryX=0.5;entryY=0;entryDx=0;entryDy=0;" edge="1" parent="1" source="RjcR3AsE55ujhxijjUr5-67" target="RjcR3AsE55ujhxijjUr5-68">
          <mxGeometry width="50" height="50" relative="1" as="geometry">
            <mxPoint x="1320" y="110" as="sourcePoint" />
            <mxPoint x="1370" y="60" as="targetPoint" />
            <Array as="points">
              <mxPoint x="1370" y="110" />
              <mxPoint x="1320" y="60" />
            </Array>
          </mxGeometry>
        </mxCell>
        <mxCell id="RjcR3AsE55ujhxijjUr5-71" value="" style="endArrow=classic;html=1;rounded=1;fontSize=15;fontColor=#FF0000;strokeColor=#1A1A1A;entryX=0.5;entryY=1;entryDx=0;entryDy=0;" edge="1" parent="1" target="RjcR3AsE55ujhxijjUr5-66">
          <mxGeometry width="50" height="50" relative="1" as="geometry">
            <mxPoint x="935" y="150" as="sourcePoint" />
            <mxPoint x="960" y="130" as="targetPoint" />
            <Array as="points">
              <mxPoint x="935" y="160" />
              <mxPoint x="935" y="150" />
            </Array>
          </mxGeometry>
        </mxCell>
        <mxCell id="RjcR3AsE55ujhxijjUr5-72" value="" style="endArrow=classic;html=1;rounded=1;fontSize=15;fontColor=#FF0000;strokeColor=#1A1A1A;entryX=0.5;entryY=1;entryDx=0;entryDy=0;" edge="1" parent="1">
          <mxGeometry width="50" height="50" relative="1" as="geometry">
            <mxPoint x="1217.71" y="150" as="sourcePoint" />
            <mxPoint x="1217.21" y="119.99999999999997" as="targetPoint" />
            <Array as="points">
              <mxPoint x="1217.71" y="160" />
              <mxPoint x="1217.71" y="150" />
            </Array>
          </mxGeometry>
        </mxCell>
        <mxCell id="RjcR3AsE55ujhxijjUr5-73" value="" style="endArrow=classic;html=1;rounded=1;fontSize=15;fontColor=#FF0000;strokeColor=#1A1A1A;entryX=-0.007;entryY=0.419;entryDx=0;entryDy=0;entryPerimeter=0;exitX=1.006;exitY=0.435;exitDx=0;exitDy=0;exitPerimeter=0;" edge="1" parent="1" source="RjcR3AsE55ujhxijjUr5-54" target="RjcR3AsE55ujhxijjUr5-68">
          <mxGeometry width="50" height="50" relative="1" as="geometry">
            <mxPoint x="1300.5" y="430" as="sourcePoint" />
            <mxPoint x="1300" y="420" as="targetPoint" />
            <Array as="points" />
          </mxGeometry>
        </mxCell>
        <mxCell id="RjcR3AsE55ujhxijjUr5-74" value="&lt;font color=&quot;#1a1a1a&quot;&gt;L_OK后推动主状态机迁移&lt;/font&gt;" style="text;html=1;align=center;verticalAlign=middle;resizable=0;points=[];autosize=1;strokeColor=none;fillColor=none;fontSize=15;fontColor=#FF0000;" vertex="1" parent="1">
          <mxGeometry x="932" y="130" width="190" height="20" as="geometry" />
        </mxCell>
      </root>
    </mxGraphModel>
  </diagram>
</mxfile>
